<svg xmlns="http://www.w3.org/2000/svg" version="1.1" xmlns:xlink="http://www.w3.org/1999/xlink" width="2000" height="1500" viewBox="0 0 2000 1500"><rect width="2000" height="1500" x="0" y="0" id="background" stroke="transparent" fill="#111111"></rect><svg xml:space="preserve" width="1500" height="1125" data-version="2" data-id="lg_yfHniQhzEyKg4YBz2W" viewBox="0 0 224 405" x="250" y="187.5"><rect width="100%" height="100%" fill="transparent"></rect><path fill="#fff" d="M61.1 54.5v322.24q0 23.76-29.21 23.76-29.2 0-29.2-23.76V34.2q0-11.38 6.43-20.54Q15.56 4.5 33.87 4.5h168.3q17.82 0 18.81 24.75.99 25.25-18.81 25.25zm126.72 138.6q0 8.41-3.22 16.09-3.22 7.67-8.91 13.11-5.69 5.45-13.12 8.67-7.42 3.21-16.33 3.21-16.83 0-28.71-11.88-11.88-11.88-11.88-29.2 0-17.33 11.88-29.21 11.88-11.88 28.71-11.88 8.91 0 16.33 3.22 7.43 3.22 13.12 8.91 5.69 5.69 8.91 13.12 3.22 7.42 3.22 15.84"></path></svg></svg>